<?xml version="1.0" standalone="no"?>
<!DOCTYPE svg PUBLIC "-//W3C//DTD SVG 20010904//EN"
 "http://www.w3.org/TR/2001/REC-SVG-20010904/DTD/svg10.dtd">
<svg version="1.0" xmlns="http://www.w3.org/2000/svg"
 width="512.000000pt" height="512.000000pt" viewBox="0 0 512.000000 512.000000"
 preserveAspectRatio="xMidYMid meet">
<metadata>
Created by potrace 1.11, written by Peter Selinger 2001-2013
</metadata>
<g transform="translate(0.000000,512.000000) scale(0.100000,-0.100000)"
fill="#000000" stroke="none">
<path d="M1999 5106 c-55 -20 -96 -53 -124 -100 -21 -37 -32 -89 -70 -356 -25
-172 -46 -314 -48 -315 -1 -1 -38 -21 -82 -45 -44 -24 -118 -67 -166 -97 l-85
-53 -290 117 c-260 106 -295 118 -349 117 -68 0 -128 -26 -166 -71 -13 -16
-140 -230 -282 -476 -229 -396 -259 -453 -264 -500 -6 -59 8 -115 39 -160 11
-15 129 -113 263 -218 l244 -190 0 -199 0 -199 -247 -193 c-223 -174 -250
-198 -274 -247 -31 -61 -36 -117 -14 -177 19 -55 512 -903 543 -936 39 -41
118 -71 173 -66 26 3 165 53 335 121 l289 117 85 -53 c48 -30 122 -73 166 -97
44 -24 81 -44 82 -45 2 -1 23 -143 48 -316 52 -357 59 -378 149 -434 l49 -30
556 0 c524 0 558 1 591 19 104 55 112 78 165 448 25 171 46 312 48 313 1 1 38
21 82 45 44 23 118 67 165 96 l85 54 300 -121 c277 -111 304 -120 351 -115 62
5 122 34 156 74 14 16 141 232 284 478 l259 449 0 76 c0 111 -12 124 -299 349
l-244 192 0 198 0 199 245 191 c287 225 298 239 298 349 l0 76 -253 440 c-140
242 -266 456 -281 475 -15 19 -52 48 -82 63 -82 43 -109 37 -443 -97 l-289
-115 -101 63 c-56 35 -130 78 -166 96 -36 18 -66 33 -67 35 -2 1 -23 142 -48
313 -52 366 -62 393 -160 445 -39 22 -48 22 -580 24 -424 2 -548 0 -576 -11z
m735 -1711 c286 -61 524 -265 626 -538 50 -133 65 -331 35 -471 -70 -333 -328
-591 -661 -661 -140 -30 -337 -15 -473 35 -223 83 -418 278 -501 501 -67 182
-67 416 0 598 100 267 340 475 622 536 84 18 266 18 352 0z"/>
</g>
</svg>
